<svg width="36" height="36" viewBox="0 0 36 36" fill="none" xmlns="http://www.w3.org/2000/svg">
<g clip-path="url(#clip0_386_292)">
<path d="M25.1593 0.0180158C25.0828 -0.0674842 22.3266 0.0517658 19.9281 2.65502C17.5296 5.25602 17.8986 8.23952 17.9526 8.31602C18.0066 8.39252 21.3726 8.51177 23.5213 5.48552C25.6701 2.45927 25.2358 0.105766 25.1593 0.0180158V0.0180158ZM32.6158 26.4173C32.5078 26.2013 27.3846 23.6408 27.8616 18.7178C28.3386 13.7925 31.6303 12.4425 31.6821 12.2963C31.7338 12.15 30.3388 10.5188 28.8606 9.69302C27.7752 9.11083 26.574 8.77728 25.3438 8.71652C25.1008 8.70977 24.2571 8.50277 22.5223 8.97752C21.3793 9.29027 18.8031 10.3028 18.0943 10.3433C17.3833 10.3838 15.2683 9.16877 12.9936 8.84702C11.5378 8.56577 9.99433 9.14177 8.88958 9.58502C7.78708 10.026 5.69008 11.2815 4.22308 14.6183C2.75608 17.9528 3.52333 23.2358 4.07233 24.8783C4.62133 26.5185 5.47858 29.2073 6.93658 31.1693C8.23258 33.3833 9.95158 34.92 10.6693 35.442C11.3871 35.964 13.4121 36.3105 14.8161 35.5928C15.9456 34.8998 17.9841 34.5015 18.7896 34.5308C19.5928 34.56 21.1768 34.8773 22.7991 35.7435C24.0838 36.1868 25.2988 36.0023 26.5161 35.5073C27.7333 35.01 29.4951 33.1245 31.5516 29.3018C32.3323 27.5243 32.6878 26.5635 32.6158 26.4173V26.4173Z" fill="black"/>
<path d="M25.1593 0.0180158C25.0828 -0.0674842 22.3266 0.0517658 19.9281 2.65502C17.5296 5.25602 17.8986 8.23952 17.9526 8.31602C18.0066 8.39252 21.3726 8.51177 23.5213 5.48552C25.6701 2.45927 25.2358 0.105766 25.1593 0.0180158V0.0180158ZM32.6158 26.4173C32.5078 26.2013 27.3846 23.6408 27.8616 18.7178C28.3386 13.7925 31.6303 12.4425 31.6821 12.2963C31.7338 12.15 30.3388 10.5188 28.8606 9.69302C27.7752 9.11083 26.574 8.77728 25.3438 8.71652C25.1008 8.70977 24.2571 8.50277 22.5223 8.97752C21.3793 9.29027 18.8031 10.3028 18.0943 10.3433C17.3833 10.3838 15.2683 9.16877 12.9936 8.84702C11.5378 8.56577 9.99433 9.14177 8.88958 9.58502C7.78708 10.026 5.69008 11.2815 4.22308 14.6183C2.75608 17.9528 3.52333 23.2358 4.07233 24.8783C4.62133 26.5185 5.47858 29.2073 6.93658 31.1693C8.23258 33.3833 9.95158 34.92 10.6693 35.442C11.3871 35.964 13.4121 36.3105 14.8161 35.5928C15.9456 34.8998 17.9841 34.5015 18.7896 34.5308C19.5928 34.56 21.1768 34.8773 22.7991 35.7435C24.0838 36.1868 25.2988 36.0023 26.5161 35.5073C27.7333 35.01 29.4951 33.1245 31.5516 29.3018C32.3323 27.5243 32.6878 26.5635 32.6158 26.4173V26.4173Z" fill="black"/>
</g>
<defs>
<clipPath id="clip0_386_292">
<rect width="36" height="36" fill="white"/>
</clipPath>
</defs>
</svg>
