<svg width="24" height="24" viewBox="0 0 24 24" fill="none" xmlns="http://www.w3.org/2000/svg">
<g clip-path="url(#clip0_208_10899)">
<path d="M11.2288 19.4541L21.3592 9.32104C21.4047 9.2755 21.4261 9.21389 21.4208 9.15229L20.7378 1.07907C20.719 0.870142 20.5556 0.706749 20.3467 0.687999L12.2735 0.00764221C12.2119 0.00228507 12.1476 0.0237135 12.1047 0.0692492L1.97436 10.1996C1.93448 10.2399 1.91211 10.2943 1.91211 10.3509C1.91211 10.4076 1.93448 10.462 1.97436 10.5023L10.9261 19.4541C11.0092 19.5398 11.1458 19.5398 11.2288 19.4541ZM12.9056 1.99782L18.9217 2.50675L19.4306 8.52282L11.0761 16.8746L4.55115 10.3523L12.9056 1.99782ZM14.517 6.98612C14.6364 7.10551 14.7782 7.20021 14.9342 7.26481C15.0902 7.32942 15.2574 7.36266 15.4262 7.36265C15.5951 7.36264 15.7623 7.32937 15.9183 7.26474C16.0743 7.20011 16.216 7.10539 16.3354 6.98599C16.4548 6.86659 16.5495 6.72484 16.6141 6.56884C16.6787 6.41284 16.7119 6.24564 16.7119 6.07679C16.7119 5.90794 16.6786 5.74075 16.614 5.58475C16.5494 5.42876 16.4547 5.28703 16.3353 5.16764C16.2159 5.04826 16.0741 4.95356 15.9181 4.88895C15.7621 4.82435 15.5949 4.7911 15.4261 4.79112C15.2572 4.79113 15.09 4.8244 14.934 4.88903C14.778 4.95365 14.6363 5.04837 14.5169 5.16778C14.3975 5.28718 14.3028 5.42893 14.2382 5.58493C14.1736 5.74093 14.1404 5.90813 14.1404 6.07698C14.1404 6.24583 14.1737 6.41302 14.2383 6.56901C14.3029 6.725 14.3976 6.86674 14.517 6.98612ZM22.1172 12.7443L21.0565 11.6862C21.0162 11.6463 20.9618 11.624 20.9052 11.624C20.8485 11.624 20.7941 11.6463 20.7538 11.6862L11.0574 21.3639L4.69311 15.0157C4.65284 14.9758 4.59845 14.9534 4.54177 14.9534C4.48509 14.9534 4.43071 14.9758 4.39043 15.0157L3.32972 16.0737C3.28984 16.114 3.26747 16.1684 3.26747 16.2251C3.26747 16.2817 3.28984 16.3361 3.32972 16.3764L9.844 22.88L10.9047 23.938C10.9878 24.021 11.1244 24.021 11.2074 23.938L22.1172 13.0469C22.2003 12.9639 22.2003 12.8273 22.1172 12.7443Z" fill="black"/>
</g>
<defs>
<clipPath id="clip0_208_10899">
<rect width="24" height="24" fill="white"/>
</clipPath>
</defs>
</svg>
