<svg width="40" height="40" viewBox="0 0 40 40" fill="none" xmlns="http://www.w3.org/2000/svg">
<path d="M20.0137 0.408203C9.26148 0.408203 0.513672 9.15602 0.513672 19.9082C0.513672 30.6604 9.26148 39.4082 20.0137 39.4082C30.7659 39.4082 39.5137 30.6604 39.5137 19.9082C39.5137 9.15602 30.7659 0.408203 20.0137 0.408203ZM15.3055 11.3601C16.4934 10.101 18.1649 9.4082 20.0137 9.4082C21.8624 9.4082 23.519 10.1057 24.7115 11.3713C25.9199 12.6538 26.5077 14.377 26.369 16.2295C26.0915 19.9082 23.2415 22.9082 20.0137 22.9082C16.7859 22.9082 13.9302 19.9082 13.6584 16.2285C13.5205 14.361 14.1074 12.6323 15.3055 11.3601ZM20.0137 36.4082C17.811 36.4097 15.6304 35.9688 13.6013 35.1117C11.5722 34.2547 9.73586 32.9989 8.20117 31.4188C9.08013 30.1654 10.2001 29.0996 11.4955 28.2838C13.8852 26.752 16.9096 25.9082 20.0137 25.9082C23.1177 25.9082 26.1421 26.752 28.529 28.2838C29.8255 29.0992 30.9465 30.165 31.8262 31.4188C30.2916 32.9991 28.4553 34.255 26.4261 35.112C24.397 35.9691 22.2164 36.4099 20.0137 36.4082V36.4082Z" fill="#737373"/>
</svg>
