<svg width="38" height="38" viewBox="0 0 38 38" fill="none" xmlns="http://www.w3.org/2000/svg">
<circle cx="19" cy="19" r="19" fill="#E9A501"/>
<path d="M28.4819 24.8913C27.9971 23.7428 27.2934 22.6996 26.4102 21.8197C25.5297 20.9374 24.4867 20.2339 23.3387 19.748C23.3284 19.7429 23.3181 19.7403 23.3078 19.7352C24.9092 18.5785 25.9502 16.6945 25.9502 14.5688C25.9502 11.0474 23.0971 8.19434 19.5757 8.19434C16.0543 8.19434 13.2012 11.0474 13.2012 14.5688C13.2012 16.6945 14.2422 18.5785 15.8436 19.7378C15.8333 19.7429 15.823 19.7455 15.8127 19.7506C14.6612 20.2364 13.6279 20.933 12.7411 21.8223C11.8588 22.7028 11.1553 23.7459 10.6694 24.8939C10.1922 26.0178 9.9348 27.2227 9.9112 28.4435C9.91051 28.471 9.91532 28.4983 9.92535 28.5238C9.93538 28.5493 9.95041 28.5726 9.96958 28.5923C9.98874 28.6119 10.0116 28.6275 10.0369 28.6382C10.0622 28.6488 10.0894 28.6543 10.1168 28.6543H11.659C11.7721 28.6543 11.8621 28.5643 11.8647 28.4538C11.9161 26.4695 12.7129 24.6111 14.1214 23.2026C15.5788 21.7452 17.5143 20.9433 19.5757 20.9433C21.6371 20.9433 23.5726 21.7452 25.03 23.2026C26.4385 24.6111 27.2353 26.4695 27.2867 28.4538C27.2893 28.5669 27.3793 28.6543 27.4924 28.6543H29.0346C29.062 28.6543 29.0892 28.6488 29.1145 28.6382C29.1398 28.6275 29.1627 28.6119 29.1818 28.5923C29.201 28.5726 29.216 28.5493 29.226 28.5238C29.2361 28.4983 29.2409 28.471 29.2402 28.4435C29.2145 27.2149 28.96 26.0197 28.4819 24.8913ZM19.5757 18.9898C18.3959 18.9898 17.2855 18.5297 16.4502 17.6943C15.6148 16.859 15.1547 15.7486 15.1547 14.5688C15.1547 13.389 15.6148 12.2786 16.4502 11.4433C17.2855 10.6079 18.3959 10.1478 19.5757 10.1478C20.7555 10.1478 21.8659 10.6079 22.7012 11.4433C23.5366 12.2786 23.9967 13.389 23.9967 14.5688C23.9967 15.7486 23.5366 16.859 22.7012 17.6943C21.8659 18.5297 20.7555 18.9898 19.5757 18.9898Z" fill="white"/>
</svg>
