<svg width="37" height="37" viewBox="0 0 37 37" fill="none" xmlns="http://www.w3.org/2000/svg">
<g clip-path="url(#clip0_386_300)">
<path fill-rule="evenodd" clip-rule="evenodd" d="M35.4926 0.588867H2.49294C1.66381 0.588867 0.992188 1.26049 0.992188 2.08849V35.0892C0.992188 35.9172 1.66381 36.5889 2.49294 36.5889H20.1172V23.0889H15.6172V17.4639H20.1172V12.9639C20.1172 8.31424 23.0613 6.02599 27.2092 6.02599C29.1959 6.02599 30.9037 6.17449 31.4009 6.23974V11.0997L28.5243 11.1009C26.2687 11.1009 25.7422 12.173 25.7422 13.7457V17.4639H31.3672L30.2422 23.0889H25.7422L25.8322 36.5889H35.4926C36.3206 36.5889 36.9922 35.9172 36.9922 35.0892V2.08849C36.9922 1.26049 36.3206 0.588867 35.4926 0.588867Z" fill="#3B5998"/>
</g>
<defs>
<clipPath id="clip0_386_300">
<rect width="36" height="36" fill="white" transform="translate(0.992188 0.588867)"/>
</clipPath>
</defs>
</svg>
