<svg width="36" height="36" viewBox="0 0 36 36" fill="none" xmlns="http://www.w3.org/2000/svg">
<path d="M32.7083 15.0623H31.5V15H18V21H26.4773C25.2405 24.4928 21.9173 27 18 27C13.0298 27 9 22.9702 9 18C9 13.0298 13.0298 9 18 9C20.2943 9 22.3815 9.8655 23.9708 11.2792L28.2135 7.0365C25.5345 4.53975 21.951 3 18 3C9.71625 3 3 9.71625 3 18C3 26.2838 9.71625 33 18 33C26.2838 33 33 26.2838 33 18C33 16.9943 32.8965 16.0125 32.7083 15.0623Z" fill="#FFC107"/>
<path d="M4.73047 11.0182L9.65872 14.6325C10.9922 11.331 14.2217 9 18.001 9C20.2952 9 22.3825 9.8655 23.9717 11.2792L28.2145 7.0365C25.5355 4.53975 21.952 3 18.001 3C12.2395 3 7.24297 6.25275 4.73047 11.0182Z" fill="#FF3D00"/>
<path d="M17.9983 32.9995C21.8728 32.9995 25.3933 31.5168 28.055 29.1055L23.4125 25.177C21.8559 26.3608 19.9539 27.0011 17.9983 26.9995C14.0968 26.9995 10.784 24.5118 9.53603 21.04L4.64453 24.8088C7.12703 29.6665 12.1685 32.9995 17.9983 32.9995Z" fill="#4CAF50"/>
<path d="M32.7083 15.0623H31.5V15H18V21H26.4773C25.8857 22.6623 24.82 24.1149 23.412 25.1782L23.4142 25.1768L28.0568 29.1052C27.7283 29.4037 33 25.5 33 18C33 16.9943 32.8965 16.0125 32.7083 15.0623Z" fill="#1976D2"/>
</svg>
