<svg width="24" height="24" viewBox="0 0 24 24" fill="none" xmlns="http://www.w3.org/2000/svg">
<path d="M23.0081 5.88202C22.6491 5.05069 22.1314 4.29735 21.484 3.66417C20.8361 3.02909 20.0723 2.52441 19.234 2.17756C18.3647 1.81647 17.4324 1.63164 16.4911 1.63381C15.1706 1.63381 13.8822 1.99542 12.7626 2.67845C12.4947 2.84184 12.2402 3.02131 11.9992 3.21684C11.7581 3.02131 11.5036 2.84184 11.2358 2.67845C10.1161 1.99542 8.82773 1.63381 7.5072 1.63381C6.55631 1.63381 5.63488 1.81595 4.76434 2.17756C3.92327 2.52577 3.16523 3.02667 2.51434 3.66417C1.86612 4.29664 1.3483 5.05016 0.990234 5.88202C0.617913 6.7472 0.427734 7.66595 0.427734 8.61149C0.427734 9.50345 0.609877 10.4329 0.971484 11.3785C1.27416 12.1686 1.70809 12.9883 2.26256 13.816C3.14113 15.1258 4.34916 16.4918 5.84916 17.8767C8.33488 20.1722 10.7965 21.7579 10.9009 21.8222L11.5358 22.2293C11.817 22.4088 12.1786 22.4088 12.4599 22.2293L13.0947 21.8222C13.1992 21.7552 15.6581 20.1722 18.1465 17.8767C19.6465 16.4918 20.8545 15.1258 21.7331 13.816C22.2876 12.9883 22.7242 12.1686 23.0242 11.3785C23.3858 10.4329 23.5679 9.50345 23.5679 8.61149C23.5706 7.66595 23.3804 6.7472 23.0081 5.88202ZM11.9992 20.1106C11.9992 20.1106 2.46345 14.0008 2.46345 8.61149C2.46345 5.88202 4.72148 3.66952 7.5072 3.66952C9.46523 3.66952 11.1634 4.76238 11.9992 6.35881C12.8349 4.76238 14.5331 3.66952 16.4911 3.66952C19.2768 3.66952 21.5349 5.88202 21.5349 8.61149C21.5349 14.0008 11.9992 20.1106 11.9992 20.1106Z" fill="black"/>
</svg>
