<svg width="24" height="24" viewBox="0 0 24 24" fill="none" xmlns="http://www.w3.org/2000/svg">
<g clip-path="url(#clip0_208_10902)">
<path d="M23.0564 15.0456L21.3019 13.5456C21.3849 13.0367 21.4278 12.5171 21.4278 11.9974C21.4278 11.4778 21.3849 10.9581 21.3019 10.4492L23.0564 8.94922C23.1887 8.83593 23.2834 8.68505 23.3279 8.51663C23.3724 8.3482 23.3646 8.17023 23.3055 8.00636L23.2814 7.93672C22.7984 6.58679 22.0751 5.33538 21.1465 4.24297L21.0983 4.18672C20.9857 4.05427 20.8356 3.95906 20.6677 3.91363C20.4999 3.86821 20.3222 3.8747 20.1582 3.93225L17.9805 4.70636C17.1769 4.04743 16.2796 3.52779 15.3099 3.1635L14.8894 0.886719C14.8577 0.715403 14.7746 0.557797 14.6511 0.434838C14.5277 0.311879 14.3698 0.229389 14.1983 0.198326L14.126 0.184933C12.7305 -0.0668527 11.2626 -0.0668527 9.86708 0.184933L9.79476 0.198326C9.62332 0.229389 9.46539 0.311879 9.34196 0.434838C9.21852 0.557797 9.13542 0.715403 9.10369 0.886719L8.68048 3.17422C7.71857 3.53858 6.8228 4.05795 6.02869 4.71172L3.83494 3.93225C3.67092 3.87424 3.49313 3.86752 3.32519 3.91297C3.15726 3.95842 3.00713 4.0539 2.89476 4.18672L2.84655 4.24297C1.91908 5.33616 1.19595 6.58735 0.711724 7.93672L0.687617 8.00636C0.567081 8.34118 0.666188 8.71618 0.936724 8.94922L2.71262 10.4653C2.62958 10.9689 2.5894 11.4831 2.5894 11.9948C2.5894 12.509 2.62958 13.0233 2.71262 13.5242L0.936724 15.0403C0.804391 15.1536 0.709679 15.3045 0.665181 15.4729C0.620684 15.6413 0.628509 15.8193 0.687617 15.9831L0.711724 16.0528C1.19655 17.4028 1.9144 18.6483 2.84655 19.7465L2.89476 19.8028C3.00741 19.9352 3.15754 20.0305 3.32537 20.0759C3.49321 20.1213 3.67087 20.1148 3.83494 20.0573L6.02869 19.2778C6.8269 19.934 7.71887 20.4537 8.68048 20.8153L9.10369 23.1028C9.13542 23.2741 9.21852 23.4317 9.34196 23.5547C9.46539 23.6776 9.62332 23.7601 9.79476 23.7912L9.86708 23.8046C11.2754 24.0577 12.7177 24.0577 14.126 23.8046L14.1983 23.7912C14.3698 23.7601 14.5277 23.6776 14.6511 23.5547C14.7746 23.4317 14.8577 23.2741 14.8894 23.1028L15.3099 20.826C16.2792 20.4627 17.1816 19.9413 17.9805 19.2831L20.1582 20.0573C20.3222 20.1153 20.5 20.122 20.6679 20.0765C20.8358 20.0311 20.986 19.9356 21.0983 19.8028L21.1465 19.7465C22.0787 18.6456 22.7965 17.4028 23.2814 16.0528L23.3055 15.9831C23.426 15.6537 23.3269 15.2787 23.0564 15.0456ZM19.4001 10.7653C19.4671 11.1698 19.5019 11.5849 19.5019 12.0001C19.5019 12.4153 19.4671 12.8305 19.4001 13.2349L19.2233 14.309L21.2242 16.0206C20.9209 16.7195 20.538 17.381 20.0832 17.9921L17.5974 17.1108L16.7564 17.8019C16.1162 18.3269 15.4037 18.7394 14.6323 19.0287L13.6117 19.4117L13.1323 22.0099C12.3758 22.0956 11.612 22.0956 10.8555 22.0099L10.376 19.4064L9.36351 19.018C8.60012 18.7287 7.8903 18.3162 7.25547 17.7939L6.4144 17.1001L3.91262 17.9894C3.45726 17.376 3.0769 16.7144 2.77155 16.018L4.79387 14.2903L4.61976 13.2189C4.55547 12.8198 4.52065 12.4073 4.52065 12.0001C4.52065 11.5903 4.5528 11.1805 4.61976 10.7814L4.79387 9.70993L2.77155 7.98225C3.07422 7.28315 3.45726 6.62422 3.91262 6.01083L6.4144 6.90011L7.25547 6.20636C7.8903 5.68404 8.60012 5.27154 9.36351 4.98225L10.3787 4.59922L10.8582 1.99565C11.6108 1.90993 12.3796 1.90993 13.1349 1.99565L13.6144 4.59386L14.6349 4.9769C15.4037 5.26618 16.1189 5.67868 16.759 6.20368L17.6001 6.89475L20.0858 6.0135C20.5412 6.6269 20.9215 7.2885 21.2269 7.98493L19.226 9.69654L19.4001 10.7653ZM11.9992 7.01797C9.39565 7.01797 7.28494 9.12868 7.28494 11.7323C7.28494 14.3358 9.39565 16.4465 11.9992 16.4465C14.6028 16.4465 16.7135 14.3358 16.7135 11.7323C16.7135 9.12868 14.6028 7.01797 11.9992 7.01797ZM14.1207 13.8537C13.8424 14.1327 13.5117 14.354 13.1477 14.5048C12.7836 14.6556 12.3933 14.7329 11.9992 14.7323C11.1983 14.7323 10.4457 14.4189 9.8778 13.8537C9.59875 13.5754 9.37748 13.2448 9.2267 12.8807C9.07592 12.5166 8.99861 12.1263 8.99922 11.7323C8.99922 10.9314 9.31262 10.1787 9.8778 9.61083C10.4457 9.04297 11.1983 8.73225 11.9992 8.73225C12.8001 8.73225 13.5528 9.04297 14.1207 9.61083C14.3997 9.88907 14.621 10.2197 14.7718 10.5838C14.9225 10.9479 14.9998 11.3382 14.9992 11.7323C14.9992 12.5331 14.6858 13.2858 14.1207 13.8537Z" fill="black"/>
</g>
<defs>
<clipPath id="clip0_208_10902">
<rect width="24" height="24" fill="white"/>
</clipPath>
</defs>
</svg>
