<svg width="37" height="37" viewBox="0 0 37 37" fill="none" xmlns="http://www.w3.org/2000/svg">
<g clip-path="url(#clip0_386_298)">
<path fill-rule="evenodd" clip-rule="evenodd" d="M36.6328 6.67151C35.3083 7.25951 33.8848 7.65551 32.3908 7.83401C33.9148 6.92051 35.0863 5.47301 35.6383 3.74801C34.2118 4.59551 32.6308 5.20901 30.9478 5.54201C29.6008 4.10501 27.6808 3.20801 25.5568 3.20801C21.4783 3.20801 18.1708 6.51551 18.1708 10.594C18.1708 11.173 18.2368 11.737 18.3628 12.277C12.2248 11.9695 6.78131 9.02951 3.13931 4.55951C2.50331 5.65151 2.13881 6.91901 2.13881 8.27351C2.13881 10.8355 3.44231 13.0975 5.42531 14.422C4.21481 14.3815 3.07481 14.05 2.07881 13.498V13.5895C2.07881 17.1685 4.62431 20.1535 8.00381 20.8315C7.38431 21.0025 6.73031 21.091 6.05831 21.091C5.58131 21.091 5.11931 21.0445 4.66781 20.959C5.60831 23.893 8.33531 26.029 11.5678 26.089C9.03881 28.069 5.85431 29.2495 2.39531 29.2495C1.79831 29.2495 1.21031 29.215 0.632812 29.1475C3.90131 31.2415 7.78331 32.4655 11.9548 32.4655C25.5403 32.4655 32.9683 21.211 32.9683 11.4505C32.9683 11.131 32.9608 10.813 32.9473 10.4965C34.3903 9.45401 35.6428 8.15351 36.6328 6.67151Z" fill="#1DA1F2"/>
</g>
<defs>
<clipPath id="clip0_386_298">
<rect width="36" height="36" fill="white" transform="translate(0.632812 0.208984)"/>
</clipPath>
</defs>
</svg>
